<?xml version="1.0" standalone="no"?>
<!DOCTYPE svg PUBLIC "-//W3C//DTD SVG 20010904//EN"
 "http://www.w3.org/TR/2001/REC-SVG-20010904/DTD/svg10.dtd">
<svg version="1.0" xmlns="http://www.w3.org/2000/svg"
 width="500.000000pt" height="500.000000pt" viewBox="0 0 500.000000 500.000000"
 preserveAspectRatio="xMidYMid meet">

<g transform="translate(0.000000,500.000000) scale(0.100000,-0.100000)"
fill="#000000" stroke="none">
<path d="M1695 4413 c-55 -7 -83 -24 -101 -61 -11 -24 -102 -624 -275 -1821
-143 -981 -259 -1795 -259 -1808 0 -39 27 -79 64 -97 29 -14 81 -16 390 -16
401 0 415 2 441 64 8 19 132 842 275 1830 289 1994 273 1848 200 1890 -33 20
-52 21 -370 22 -184 1 -348 0 -365 -3z"/>
<path d="M3165 4413 c-53 -7 -86 -25 -101 -56 -15 -27 -534 -3559 -534 -3630
0 -42 25 -82 64 -101 29 -14 81 -16 390 -16 397 0 410 2 438 61 17 36 529
3535 530 3620 0 27 -7 57 -16 71 -33 50 -47 52 -406 54 -184 1 -348 0 -365 -3z"/>
</g>
</svg>
